# Blender v2.81 (sub 16) OBJ File: 'GraficaSoFarSoGood.blend'
# www.blender.org
mtllib river.mtl
o Plane.001
v 6.636921 -0.904347 -15.665836
v -59.400425 -0.904347 -15.665836
v 6.636921 -0.904347 57.295277
v -59.400425 -0.904347 57.295277
vt -40038403664160751616.000000 102519378967508549632.000000
vt -38848960781325697024.000000 -115742941431979835392.000000
vt 40038403664160751616.000000 -102519352579229483008.000000
vt 38848921198907097088.000000 115742941431979835392.000000
vn 0.0000 1.0000 0.0000
usemtl Material.001
s off
f 1/1/1 2/2/1 4/3/1 3/4/1
